<svg width="60" height="60" viewBox="0 0 60 60" fill="none" xmlns="http://www.w3.org/2000/svg">
<g id="24 / file / file-download">
<path id="icon" fill-rule="evenodd" clip-rule="evenodd" d="M38.5355 2.49997H12.5C9.73858 2.49997 7.5 4.73855 7.5 7.49997V52.5C7.5 55.2614 9.73858 57.5 12.5 57.5H47.5C50.2614 57.5 52.5 55.2614 52.5 52.5V16.4644L38.5355 2.49997ZM12.5 7.5H32.5V17.4999C32.5 20.2614 34.7386 22.4999 37.5 22.4999H47.5V52.5H12.5V7.5ZM37.5 17.4999V8.53554L46.4644 17.4999H37.5ZM27.5 25V36.4644L24.2678 33.2322L20.7322 36.7677L30 46.0355L39.2678 36.7677L35.7322 33.2322L32.5 36.4644V25H27.5Z" fill="#A682E3"/>
</g>
</svg>
