<svg width="60" height="60" viewBox="0 0 60 60" fill="none" xmlns="http://www.w3.org/2000/svg">
<g id="24 / file / note-text">
<path id="icon" fill-rule="evenodd" clip-rule="evenodd" d="M5 50C5 52.7614 7.23858 55 10 55H43.5355L55 43.5355V10C55 7.23858 52.7614 5 50 5H10C7.23858 5 5 7.23858 5 10V50ZM10 10H50V37.5H42.5C39.7386 37.5 37.5 39.7386 37.5 42.5V50H10V10ZM42.5 42.5H48.9645L42.5 48.9645V42.5ZM17.5 37.5V42.5H32.5V37.5H17.5ZM17.5 32.5V27.5H42.5V32.5H17.5ZM17.5 17.5V22.5H42.5V17.5H17.5Z" fill="#A682E3"/>
</g>
</svg>
